<svg width="818" height="752" viewBox="0 0 818 752" fill="none" xmlns="http://www.w3.org/2000/svg">
<path d="M602.223 258.391L602.531 257.033C612.781 211.788 615.604 171.265 610.894 139.238C606.18 107.178 593.969 83.9033 574.42 72.6796L574.41 72.6739C565.828 67.6599 555.825 65.1361 544.843 64.9086V93.7242C550.871 93.9235 555.89 95.2336 560.19 97.5903L560.202 97.5972L560.215 97.6043C570.51 103.505 577.581 117.446 581.312 136.34C585.061 155.327 585.517 179.702 582.222 207.049C582.222 207.05 582.222 207.052 582.222 207.054L580.732 206.874C579.216 219.826 576.767 233.443 573.772 247.34L602.223 258.391ZM602.223 258.391L603.555 258.798C647.971 272.386 684.568 290.108 710.027 310.138C735.513 330.189 749.627 352.373 749.627 374.888C749.627 397.334 735.582 419.483 710.239 439.516C684.921 459.528 648.539 477.25 604.409 490.836L603.077 491.246L603.388 492.605C613.709 537.706 616.603 578.122 611.964 610.078C607.321 642.067 595.18 665.305 575.702 676.528C566.547 681.795 555.969 684.314 544.199 684.314C524.91 684.314 502.503 677.507 478.385 664.63C454.281 651.762 428.555 632.876 402.652 608.838L401.629 607.888L400.609 608.841C374.705 633.022 348.978 652.05 324.875 665.025C300.757 678.009 278.351 684.885 259.065 684.885C247.293 684.885 236.719 682.365 227.713 677.103L227.703 677.097C208.154 665.873 195.943 642.599 191.228 610.539C186.519 578.512 189.342 537.988 199.591 492.744L199.899 491.386L198.567 490.978C154.152 477.391 117.555 459.669 92.0953 439.639C66.6093 419.588 52.4951 397.404 52.4951 374.888C52.4951 352.443 66.5391 330.33 91.9183 310.315C117.271 290.321 153.726 272.598 198 258.94L199.331 258.529L199.02 257.172C188.699 212.071 185.805 171.654 190.444 139.698C195.087 107.71 207.228 84.4716 226.706 73.2489C235.47 68.2059 245.539 65.6821 256.709 65.4759M602.223 258.391L256.709 65.4759M256.709 65.4759V94.2878C250.621 94.4518 245.286 95.6377 241.033 98.1855C230.82 104.163 223.825 118.134 220.167 137.041C216.49 156.046 216.106 180.422 219.473 207.77L219.474 207.779C221.193 221.091 223.628 234.974 226.921 249.285L227.264 250.775L228.747 250.404C256.642 243.434 287.113 238.168 319.304 234.752L319.972 234.681L320.364 234.136C339.303 207.807 359.238 184.042 379.171 163.124L380.223 162.021L379.102 160.987C355.774 139.46 333.093 122.765 312.501 111.444C292.611 100.508 274.561 94.5254 259.709 94.1447V65.3331C278.656 65.675 300.528 72.4593 324.023 85.0035C348.126 97.8725 373.853 116.758 399.756 140.796L400.779 141.746L401.799 140.793C427.703 116.612 453.43 97.5843 477.533 84.6089C500.97 71.9925 522.789 65.1426 541.7 64.7655V93.5779C526.808 93.9939 508.807 100.01 488.993 110.983L256.709 65.4759ZM421.9 587.613L422.952 586.51C442.885 565.592 462.82 541.827 481.759 515.498L482.151 514.953L482.818 514.882C515.01 511.466 545.48 506.2 573.376 499.23L574.862 498.859L575.202 500.352C578.492 514.792 581.072 528.681 582.65 542.012C582.65 542.012 582.65 542.013 582.65 542.013L581.161 542.189C587.868 596.673 579.591 639.033 560.325 650.3L421.9 587.613ZM421.9 587.613L423.02 588.647C446.349 610.174 469.03 626.869 489.621 638.19C510.186 649.497 528.783 655.509 543.913 655.509C550.625 655.509 556.489 654.347 561.087 651.593L421.9 587.613ZM198.129 492.413C177.578 583.123 186.712 655.292 226.956 678.398C236.232 683.818 247.078 686.385 259.065 686.385C298.311 686.385 349.686 658.43 401.632 609.937C453.578 658.145 504.954 685.814 544.199 685.814C556.186 685.814 567.032 683.247 576.451 677.827C616.553 654.722 625.543 582.695 604.85 492.27L198.129 492.413ZM566.762 280.17L567.192 278.669L565.676 278.299C546.929 273.722 527.332 270.006 507.028 267.005L503.755 266.521L505.549 269.302C512.536 280.133 519.513 291.234 526.059 302.612L526.066 302.624C532.755 314.002 538.877 325.385 544.719 336.778L546.238 339.74L547.451 336.64C554.886 317.636 561.466 298.622 566.762 280.17ZM501.258 432.404L501.26 432.399C511.986 413.677 521.851 394.529 530.857 375.384L531.157 374.746L530.857 374.107C521.85 354.959 511.983 335.952 501.113 317.227L501.112 317.225C489.961 298.079 478.38 279.931 466.511 262.924L466.106 262.344L465.402 262.287C444.246 260.573 422.656 259.572 401.061 259.572C379.324 259.572 357.731 260.573 336.426 262.43L335.728 262.491L335.327 263.066C323.452 280.081 312.013 298.375 300.865 317.657L300.862 317.663C290.14 336.38 280.13 355.53 271.262 374.686L270.968 375.321L271.266 375.955C280.273 395.102 290.14 414.11 301.009 432.835L301.01 432.837C312.161 451.982 323.743 470.131 335.612 487.138L336.016 487.718L336.721 487.775C357.876 489.489 379.466 490.49 401.061 490.49C422.799 490.49 444.392 489.489 465.696 487.631L466.395 487.571L466.796 486.996C478.67 469.981 490.11 451.687 501.258 432.404ZM547.445 412.551L546.217 409.506L544.719 412.428C538.874 423.826 532.75 435.355 526.202 446.737L526.198 446.744C519.651 458.265 512.674 469.508 505.686 480.482L503.925 483.248L507.169 482.772C527.622 479.77 547.362 475.91 566.104 471.335L567.628 470.963L567.188 469.457C561.751 450.869 555.171 431.71 547.445 412.551ZM400.27 566.339L401.353 567.456L402.429 566.333C415.594 552.604 428.902 537.302 441.78 520.569L443.775 517.977L440.51 518.157C427.556 518.868 414.313 519.153 400.919 519.153C387.678 519.153 374.573 518.726 361.74 518.156L358.472 518.011L360.495 520.582C373.652 537.306 386.958 552.606 400.27 566.339ZM294.952 482.772L298.225 483.256L296.431 480.475C289.45 469.653 282.611 458.546 275.914 447.153C269.225 435.775 263.103 424.391 257.261 412.998L255.742 410.036L254.529 413.136C247.094 432.141 240.514 451.155 235.218 469.607L234.788 471.107L236.304 471.478C255.051 476.054 274.648 479.771 294.952 482.772ZM401.71 183.438L400.627 182.321L399.551 183.444C386.386 197.173 373.078 212.475 360.199 229.207L358.204 231.799L361.47 231.62C374.424 230.909 387.667 230.624 401.061 230.624C414.302 230.624 427.407 231.051 440.24 231.621L443.508 231.766L441.485 229.195C428.327 212.471 415.022 197.171 401.71 183.438ZM296.294 269.294L298.055 266.529L294.81 267.005C274.358 270.007 254.621 273.866 235.887 278.297L234.349 278.66L234.792 280.177C240.229 298.765 246.809 317.924 254.535 337.083L255.762 340.128L257.261 337.206C263.103 325.814 269.228 314.425 275.778 303.039L275.782 303.032C282.329 291.512 289.306 280.268 296.294 269.294ZM165.288 448.437L165.289 448.438C177.758 453.737 191.22 458.603 205.387 463.037L206.852 463.496L207.277 462.02C215.248 434.278 225.784 405.389 238.888 375.781L239.157 375.172L238.887 374.563C225.64 344.812 214.961 315.779 206.847 287.895L206.417 286.417L204.95 286.885C191.087 291.313 177.624 296.035 165.29 301.339C139.932 312.077 118.985 324.596 104.349 337.296C89.7857 349.933 81.1766 363.01 81.1766 374.888C81.1766 386.768 89.7871 399.809 104.349 412.427C118.985 425.109 139.932 437.628 165.288 448.437ZM241.908 652.172L241.915 652.176C246.47 654.756 252.154 656.075 258.747 656.221L258.763 656.222H258.78C273.983 656.222 292.582 650.173 313.13 638.794C333.704 627.401 356.349 610.598 379.677 588.929L380.794 587.891L379.738 586.791C359.667 565.878 339.73 541.969 320.5 515.632L320.108 515.095L319.448 515.025C287.399 511.608 256.925 506.342 229.025 499.513L227.53 499.147L227.203 500.651C224.057 515.086 221.478 529.256 219.901 542.726C216.606 570.073 217.061 594.449 220.811 613.437C224.541 632.33 231.613 646.271 241.908 652.172ZM595.133 461.882L595.563 463.36L597.03 462.892C610.893 458.464 624.357 453.741 636.692 448.437C662.049 437.699 682.995 425.18 697.648 412.481C712.229 399.844 720.87 386.771 720.946 374.898V374.888C720.946 363.009 712.335 349.967 697.773 337.349C683.137 324.667 662.19 312.149 636.835 301.339L636.827 301.336C624.22 296.039 610.761 291.174 596.593 286.74L595.128 286.281L594.703 287.757C586.732 315.498 576.196 344.387 563.092 373.996L562.822 374.605L563.093 375.213C576.34 404.965 587.019 433.997 595.133 461.882Z" fill="#61DAFB" stroke="black" strokeWidth="3"/>
<path d="M464.637 374.888C464.637 410.057 436.11 438.568 400.918 438.568C365.727 438.568 337.2 410.057 337.2 374.888C337.2 339.719 365.727 311.208 400.918 311.208C436.11 311.208 464.637 339.719 464.637 374.888Z" fill="#61DAFB" stroke="black" strokeWidth="3"/>
</svg>
