<svg width="27" height="73" viewBox="0 0 27 73" fill="none" xmlns="http://www.w3.org/2000/svg">
<path d="M16.6164 0.376058L16.1094 3.91083L23.93 5.03249L24.437 1.49772L16.6164 0.376058ZM15.7213 6.61663L13.7655 20.2531C9.48132 22.2992 6.40756 25.1838 6.03369 27.7905L0.411705 66.9892C0.411705 66.9892 0.051233 69.4993 2.65811 69.8732L18.2884 72.115C20.906 72.4904 21.2797 69.8835 21.2797 69.8835L26.8878 30.7815C27.2617 28.1746 25.1225 24.5423 21.5862 21.3748L23.542 7.73829L15.7213 6.61663ZM7.7288 33.47L23.6647 35.7556L20.1717 60.1106L4.23575 57.825L7.7288 33.47ZM10.0468 36.5643L7.32997 55.507L17.8537 57.0163L20.5705 38.0736L10.0468 36.5643Z" fill="#003050"/>
</svg>
