<svg width="56" height="59" viewBox="0 0 56 59" fill="none" xmlns="http://www.w3.org/2000/svg">
<path d="M27.8701 0.531372C25.6598 0.523675 23.5271 1.73112 22.6014 4.00563V5.18924L21.2116 4.88381C19.4625 4.49652 18.0605 4.74331 17.134 5.35332C16.2073 5.96346 15.6467 6.92912 15.6258 8.46118C15.6099 9.62671 15.8616 10.394 16.2138 10.9047C16.5659 11.4153 17.0291 11.7198 17.6684 11.8896C18.9469 12.2293 20.9268 11.846 22.689 10.8206L23.4181 10.3967L24.0367 10.9657C25.0636 11.9118 25.8094 12.3182 26.5486 12.4624C27.288 12.6065 28.1425 12.5012 29.4123 12.1111L30.6148 11.7407L30.8668 12.9738C31.1961 14.5813 32.6884 15.8335 34.4251 15.8335C36.0423 15.8335 37.317 14.7305 37.7621 13.2107L38.033 12.2905L38.9839 12.3935C40.0658 12.5144 41.3553 11.8993 42.0383 11.1298L42.7713 10.3051L43.6226 11.0116C45.8963 12.9037 47.9549 13.0836 49.3994 12.4126C50.8434 11.7414 51.8648 10.14 51.7512 7.6745C51.6437 5.37434 50.4109 3.95456 48.6358 3.29922C46.8603 2.64388 44.5112 2.85817 42.3705 4.30324L41.462 4.91802L40.8091 4.03226C39.9492 2.86122 38.7211 2.1404 37.5446 1.95531C36.3683 1.77009 35.286 2.06868 34.4446 2.9823L33.5397 3.96335L32.7114 2.91755C31.4355 1.30913 29.6309 0.537481 27.8701 0.531372ZM5.03906 12.8135C1.68905 23.0372 0.221015 33.4733 0.590957 44.1171C5.42293 46.2221 10.5386 46.329 15.6717 46.3162C15.9592 44.9634 16.2282 43.5624 16.4773 42.1354C12.5553 42.3404 8.64672 42.4433 4.95476 41.0207C4.67009 32.8497 5.79983 26.1617 8.37562 18.1706C11.7132 18.9647 15.0964 19.2225 18.5466 19.0828C18.538 17.6516 18.4993 16.3271 18.4207 15.1354C13.8798 14.9245 9.42961 14.0796 5.03906 12.8141V12.8135ZM23.1208 13.1763C22.3181 13.5783 21.4873 13.8874 20.6541 14.0812C21.0318 18.1686 20.8919 23.6586 20.387 29.6087C19.8034 36.4846 18.6929 43.8419 17.157 49.9773H50.1248C48.9114 43.5552 47.8265 36.3415 47.2423 29.6085C46.7694 24.1573 46.6029 19.0875 46.9942 14.9822C45.6776 14.8256 44.3007 14.2929 42.9701 13.3671C42.054 14.0986 40.8987 14.6065 39.6408 14.6804C38.7294 16.6654 36.7795 18.1166 34.4255 18.1166C32.0255 18.1166 29.9246 16.6676 29.0078 14.5811C27.9987 14.8114 27.0539 14.8874 26.1099 14.7033C25.0628 14.4992 24.0979 13.9685 23.1206 13.1761L23.1208 13.1763ZM13.5453 52.2604L11.2699 58.1744H55.0919L52.4383 52.2604H13.5455H13.5453Z" fill="#003050"/>
</svg>
