<svg width="47" height="71" viewBox="0 0 47 71" fill="none" xmlns="http://www.w3.org/2000/svg">
<path d="M4.74273 0.979483L1.72458 2.51224L9.41148 17.6893C10.4549 17.2981 11.5361 16.9286 12.6212 16.5741L4.74273 0.979483ZM19.9269 16.8174C13.7964 18.46 7.82833 20.6492 1.99289 23.393L0.310688 24.0192L1.83165 27.1362L3.32519 26.4011C6.18844 25.1235 9.04081 23.8648 12.1366 22.8599L14.9853 28.4918L18.2886 27.6067L15.3562 21.6623C22.9504 19.2925 30.9346 17.6635 39.1111 16.8123L40.7721 16.7021L40.5159 13.2462L38.746 13.545C32.3205 14.0866 26.0574 15.1747 19.9269 16.8174ZM4.26235 29.2439L19.4061 70.0482L20.681 69.8661C29.4223 69.039 37.8137 66.9659 45.7535 63.1479L46.9189 62.6762L39.6465 19.7627L36.3581 20.6439L37.3295 26.412L19.9499 31.0688L34.3098 59.4842L30.3153 59.0394L16.6168 31.9619L9.57868 33.8478L7.5359 28.3667L4.26235 29.2439ZM38.5473 44.8247C39.6484 44.5297 40.7953 45.1793 41.0943 46.2952C41.3933 47.4112 40.7249 48.5472 39.6238 48.8423C38.5078 49.1413 37.3758 48.4877 37.0768 47.3717C36.7777 46.2558 37.4313 45.1237 38.5473 44.8247ZM34.5535 49.9776C35.6546 49.6825 36.8203 50.343 37.1154 51.4441C37.4144 52.5601 36.7111 53.6257 35.61 53.9207C34.5089 54.2158 33.3671 53.6446 33.0681 52.5286C32.773 51.4275 33.4524 50.2726 34.5535 49.9776ZM23.716 53.6948C24.832 53.3958 25.968 54.0642 26.263 55.1653C26.578 56.3409 25.8965 57.3687 24.7805 57.6677C23.6794 57.9628 22.5604 57.4173 22.2455 56.2418C21.9504 55.1407 22.6149 53.9899 23.716 53.6948ZM39.9484 50.5893C41.0644 50.2903 42.2113 50.9399 42.5143 52.0707C42.8093 53.1718 42.1528 54.3525 41.0368 54.6515C39.9357 54.9466 38.7769 54.2523 38.4818 53.1512C38.1788 52.0204 38.8473 50.8844 39.9484 50.5893ZM19.4014 57.7694C20.5173 57.4704 21.6175 58.0049 21.9125 59.106C22.2075 60.2071 21.5659 61.3838 20.45 61.6828C19.334 61.9818 18.19 61.2836 17.895 60.1825C17.5999 59.0814 18.2854 58.0685 19.4014 57.7694ZM36.4501 55.2107C37.5661 54.9117 38.71 55.6099 39.0051 56.711C39.3001 57.8121 38.6585 58.9888 37.5425 59.2878C36.4265 59.5868 35.2826 58.8886 34.9875 57.7875C34.6925 56.6864 35.3341 55.5097 36.4501 55.2107ZM25.4216 59.3459C26.5376 59.0469 27.6964 59.7411 27.9915 60.8422C28.2865 61.9434 27.63 63.124 26.514 63.423C25.4129 63.7181 24.2541 63.0238 23.959 61.9227C23.664 60.8216 24.3205 59.641 25.4216 59.3459ZM21.146 62.8519C22.262 62.5529 23.3621 63.0874 23.6571 64.1885C23.9521 65.2896 23.3105 66.4663 22.1946 66.7653C21.0935 67.0603 19.9346 66.3661 19.6396 65.265C19.3445 64.1639 20.0449 63.147 21.146 62.8519ZM41.2728 57.7939C42.3888 57.4948 43.5328 58.193 43.8278 59.2941C44.1228 60.3952 43.4812 61.5719 42.3652 61.8709C41.2493 62.17 40.1053 61.4717 39.8102 60.3706C39.5152 59.2695 40.1568 58.0929 41.2728 57.7939ZM31.5452 61.0702C32.6463 60.7752 33.7653 61.3206 34.0603 62.4217C34.3514 63.5079 33.6989 64.7034 32.5978 64.9985C31.4818 65.2975 30.3338 64.5844 30.0428 63.4982C29.7477 62.3971 30.4292 61.3692 31.5452 61.0702Z" fill="#003050"/>
</svg>
